Coordinates
version=1
nRows=11
nColumns=40
inDegrees=yes

Units are S.I. units (second, meters, Newtons, ...)
If the header above contains a line with 'inDegrees', this indicates whether rotational values are in degrees (yes) or radians (no).

endheader
time	pelvis_tilt	pelvis_list	pelvis_rotation	pelvis_tx	pelvis_ty	pelvis_tz	hip_flexion_r	hip_adduction_r	hip_rotation_r	knee_angle_r	knee_angle_r_beta	ankle_angle_r	subtalar_angle_r	mtp_angle_r	hip_flexion_l	hip_adduction_l	hip_rotation_l	knee_angle_l	knee_angle_l_beta	ankle_angle_l	subtalar_angle_l	mtp_angle_l	lumbar_extension	lumbar_bending	lumbar_rotation	arm_flex_r	arm_add_r	arm_rot_r	elbow_flex_r	pro_sup_r	wrist_flex_r	wrist_dev_r	arm_flex_l	arm_add_l	arm_rot_l	elbow_flex_l	pro_sup_l	wrist_flex_l	wrist_dev_l
      8.18000000	     -9.32779331	      0.83317230	   -176.55274385	      0.24960418	      0.90787921	     -0.59628341	     -5.84010513	     -8.52300011	    -20.30441694	      3.19095920	      0.05569274	     -2.35661916	      0.00000000	      0.00000000	     -2.58635742	    -12.70905110	    -16.99714372	      7.31820340	      0.12772674	     -1.20671405	      0.00000000	      0.00000000	    -17.20620768	     -2.83518710	      1.21571794	      7.79292271	    -12.95761101	     25.66484772	     20.41707889	     83.72951177	      0.00000000	      0.00000000	     17.54172495	    -12.77418637	     50.37497454	     13.06117858	     63.78584364	      0.00000000	      0.00000000
      8.18500000	     -9.65050256	      0.84002824	   -176.60089765	      0.24903584	      0.90824031	     -0.59633518	     -6.26009386	     -8.48004860	    -20.34551243	      3.11290094	      0.05433037	     -2.26675873	      0.00000000	      0.00000000	     -2.97800142	    -12.75642403	    -17.21670745	      7.38251948	      0.12884927	     -1.10772472	      0.00000000	      0.00000000	    -17.29891141	     -2.80839475	      1.33681013	      7.51296577	    -13.07761624	     25.58935126	     20.72727694	     83.53129324	      0.00000000	      0.00000000	     17.34565925	    -12.55292013	     49.20167068	     13.00051690	     63.17116318	      0.00000000	      0.00000000
      8.19000000	     -9.92640917	      0.69806505	   -176.66449106	      0.24856878	      0.90856788	     -0.59629675	     -6.62609398	     -8.61680326	    -20.24094195	      3.06147102	      0.05343275	     -2.23561828	      0.00000000	      0.00000000	     -3.39062295	    -12.58749827	    -17.27769575	      7.28792981	      0.12719837	     -1.15555834	      0.00000000	      0.00000000	    -17.36295486	     -2.93918222	      1.35967568	      7.31578067	    -13.14816464	     25.52514701	     20.94449865	     83.59179214	      0.00000000	      0.00000000	     17.10877344	    -12.55160387	     48.50987660	     13.21574981	     62.34161923	      0.00000000	      0.00000000
      8.19500000	    -10.28542422	      0.68939869	   -176.74368735	      0.24798471	      0.90898095	     -0.59633959	     -7.01299292	     -8.63906934	    -20.47896951	      3.13495484	      0.05471528	     -2.24271156	      0.00000000	      0.00000000	     -3.87607664	    -12.60235537	    -17.47501096	      7.25182313	      0.12656819	     -1.14232542	      0.00000000	      0.00000000	    -17.50183814	     -2.92869770	      1.46603104	      7.11708485	    -13.21795012	     25.37117574	     21.12920612	     83.68727104	      0.00000000	      0.00000000	     16.85717736	    -12.40060228	     47.47064188	     13.33247035	     60.63927099	      0.00000000	      0.00000000
      8.20000000	    -10.61044137	      0.74612933	   -176.87384142	      0.24756859	      0.90936015	     -0.59648584	     -7.33761859	     -8.59335336	    -20.63197702	      3.18976624	      0.05567192	     -2.31073270	      0.00000000	      0.00000000	     -4.27982362	    -12.69524440	    -17.70165981	      7.32051386	      0.12776707	     -1.08439841	      0.00000000	      0.00000000	    -17.62519669	     -2.87833164	      1.67370582	      6.87017905	    -13.10340107	     24.44193410	     21.20548132	     83.38145502	      0.00000000	      0.00000000	     16.72355979	    -12.16020504	     46.62862493	     13.33936673	     58.86420319	      0.00000000	      0.00000000
      8.20500000	    -10.96111130	      0.69677468	   -177.00019102	      0.24721416	      0.90977455	     -0.59650665	     -7.75203947	     -8.64411208	    -20.58849596	      3.12794927	      0.05459301	     -2.38554440	      0.00000000	      0.00000000	     -4.74052971	    -12.64385740	    -17.88244757	      7.31466174	      0.12766493	     -1.08305573	      0.00000000	      0.00000000	    -17.80325965	     -2.91007626	      1.77504841	      6.72794695	    -13.26445971	     24.73718525	     21.42546799	     83.57469138	      0.00000000	      0.00000000	     16.53923994	    -12.00304840	     45.48164468	     13.35466038	     58.69397435	      0.00000000	      0.00000000
      8.21000000	    -11.30586121	      0.57618154	   -177.17069249	      0.24676060	      0.91011724	     -0.59655340	     -8.14739892	     -8.77516212	    -20.38790013	      3.11153880	      0.05430660	     -2.23958820	      0.00000000	      0.00000000	     -5.23560896	    -12.49854805	    -18.15280735	      7.25740615	      0.12666563	     -1.07925132	      0.00000000	      0.00000000	    -17.96876877	     -3.04553732	      1.96234100	      6.46475041	    -13.27170373	     24.35605782	     21.65873929	     82.74074947	      0.00000000	      0.00000000	     16.38676653	    -11.75747381	     44.46763069	     13.26725369	     56.95123246	      0.00000000	      0.00000000
      8.21500000	    -11.64682969	      0.53315963	   -177.29680403	      0.24640699	      0.91048817	     -0.59659182	     -8.51497577	     -8.83516858	    -20.37813354	      3.12903686	      0.05461200	     -2.25800102	      0.00000000	      0.00000000	     -5.69242807	    -12.44524550	    -18.30068155	      7.22063178	      0.12602380	     -1.11504234	      0.00000000	      0.00000000	    -18.14284867	     -3.08363750	      2.03712728	      6.35966161	    -13.28855675	     24.19689696	     21.72129511	     83.13028093	      0.00000000	      0.00000000	     16.15640831	    -11.69483854	     43.54537888	     13.48502334	     55.70648901	      0.00000000	      0.00000000
      8.22000000	    -12.04276520	      0.46328657	   -177.28632479	      0.24604519	      0.91084914	     -0.59631414	     -9.00086274	     -8.89263298	    -20.46150685	      3.08414300	      0.05382845	     -2.33734940	      0.00000000	      0.00000000	     -6.12609437	    -12.38308211	    -18.38371639	      7.29546742	      0.12732993	     -0.98976163	      0.00000000	      0.00000000	    -18.39364796	     -3.10090317	      2.03721827	      6.09094488	    -13.37713040	     23.93006982	     22.11421943	     82.47706115	      0.00000000	      0.00000000	     16.03498032	    -11.47817987	     42.65800600	     13.43459146	     54.63986772	      0.00000000	      0.00000000
      8.22500000	    -12.44410429	      0.23387930	   -177.47501122	      0.24546983	      0.91123952	     -0.59643867	     -9.49318332	     -9.12040167	    -20.22696567	      3.01191256	      0.05256779	     -2.17782854	      0.00000000	      0.00000000	     -6.83019696	    -12.04223416	    -18.35217739	      6.93404702	      0.12102195	     -1.12720318	      0.00000000	      0.00000000	    -18.62560314	     -3.35266896	      2.03066771	      6.05397719	    -13.30347415	     23.73898764	     22.03146113	     83.28046893	      0.00000000	      0.00000000	     15.70640945	    -11.51286491	     41.52888581	     13.72226066	     53.48347760	      0.00000000	      0.00000000
      8.23000000	    -12.83566432	      0.15672363	   -177.56831887	      0.24531843	      0.91153135	     -0.59632470	     -9.95545677	     -9.18137506	    -20.04971920	      2.93442379	      0.05121536	     -2.17012959	      0.00000000	      0.00000000	     -7.30529147	    -11.92984962	    -18.40235215	      6.92186179	      0.12080928	     -1.07200771	      0.00000000	      0.00000000	    -18.90587378	     -3.41711487	      2.18620263	      5.75415640	    -13.41757859	     23.45132504	     22.48826441	     82.57042677	      0.00000000	      0.00000000	     15.70343278	    -11.32924144	     40.75972774	     13.72259787	     52.94607060	      0.00000000	      0.00000000
